<svg xmlns="http://www.w3.org/2000/svg" viewBox="371 271 599 230" fill="#1c1917">
  <path d="M409.698 283.738C416.765 283.373 509.958 282.585 514.978 285.287C518.215 287.029 559.479 328.841 562.276 333.325C562.923 359.253 561.862 386.504 562.366 412.609C562.075 429.651 562.989 446.867 562.017 463.879C561.208 478.048 551.352 485.633 538.623 488.455C495.068 488.941 451.068 488.302 407.493 488.212C403.93 488.205 397.606 485.293 394.665 483.277C381.271 474.097 383.929 455.171 383.903 440.838L383.854 392.89L383.775 337.897C383.749 314.218 378.592 288.313 409.698 283.738Z"/>
  <path fill="white" d="M409.486 298.831C418.83 298.236 432.568 298.602 442.269 298.62L501.347 298.769C501.15 338.75 512.374 338.087 547.564 341.482C547.634 357.558 549.401 458.682 546.398 465.683C544.64 469.78 541.118 471.812 537.165 473.423C524.754 474.467 412.92 474.668 407.793 472.694C404.104 471.275 401.291 468.657 399.76 465.003C398.84 462.805 398.634 460.512 398.518 458.154C397.419 435.789 398.458 412.866 398.438 390.451C398.416 364.962 397.441 339.095 398.516 313.645C398.613 311.35 398.746 309.023 399.673 306.888C401.547 302.569 405.292 300.466 409.486 298.831Z"/>
  <path d="M446.652 336.899C449.015 336.746 451.177 336.439 453.447 337.088C454.667 338.696 454.708 339.527 454.558 341.787C454.287 345.902 444.718 343.323 441.618 346.308C434.95 352.73 438.985 368.926 437.896 377.47C436.949 384.898 435.615 387.168 430.393 391.595C442.685 401.924 436.794 413.317 438.258 427.962C439.791 443.287 449.45 436.188 453.978 439.931C454.239 442.307 454.258 442.651 453.711 444.97C451.925 446.333 450.384 445.889 447.713 445.991C421.576 443.553 434.942 417.025 429.154 401.204C426.982 395.266 420.515 396.062 416.163 394.624C415.092 392.992 415.491 391.478 415.652 389.432C418.389 387.544 425.824 389.634 428.319 383.999C435.48 367.828 421.075 341.62 446.652 336.899Z"/>
  <path d="M495.128 344.209C499.722 344.047 505.562 344.12 509.679 346.489C521.756 353.437 514.694 371.622 518.053 382.425C520.042 388.82 524.803 387.356 529.563 389.817C530.979 390.549 531.066 392.401 531.341 393.794C530.075 395.953 525.092 394.817 522.859 396.575C508.21 408.107 527.671 430.571 506.845 440.839C503.977 441.667 496.81 442.787 494.277 440.967C492.126 432.853 504.359 436.432 507.168 432.43C516.074 419.74 503.015 404.396 516.818 392.382C504.376 379.785 514.398 369.398 508.605 354.954C506.795 350.442 496.657 352.136 494.295 348.177C494.292 346.232 494.355 345.996 495.128 344.209Z"/>
  <path d="M611.881 391.084L634.261 390.989C633.043 402.324 630.65 416.04 628.982 427.432L666.999 427.401C668.647 415.302 670.417 403.22 672.309 391.156L694.399 391.152C693.203 398.317 680.945 483.583 679.766 485.213L658.37 485.218L663.752 447.102L625.795 447.148C624.222 459.731 622.227 472.688 620.456 485.277L598.188 485.295C599.03 476.509 601.335 463.816 602.709 454.759C606.032 433.573 609.09 412.347 611.881 391.084Z"/>
  <path d="M752.465 391.215L830.716 391.127L829.285 404.188C825.564 409.168 814.729 420.298 810.158 425.251C797.864 438.673 785.479 452.012 773.004 465.265L820.435 465.331L817.78 484.947C812.788 486.56 746.829 485.287 736.897 485.29C737.749 480.089 738.445 474.571 739.194 469.33C744.319 463.164 752.605 454.888 758.237 448.904L793.533 411.273L749.792 411.258L752.465 391.215Z"/>
  <path d="M615.761 288.759C634.833 288.577 671.899 282.992 666.041 316.343C664.853 323.105 658.622 327.341 652.985 330.599C668.21 337.535 667.608 353.272 658.059 364.986C645.634 377.037 621.104 373.654 603.379 373.536C606.419 346.187 612.378 316.588 615.761 288.759Z"/>
  <path fill="white" d="M618.658 335.334C630.54 335.202 656.948 331.096 654.888 349.208C654.194 355.303 652.268 358.112 647.676 361.966C639.531 366.299 623.913 364.937 614.267 364.828L618.658 335.334Z"/>
  <path fill="white" d="M624.263 297.332C630.644 297.23 637.133 296.979 643.499 297.337C659.301 298.226 661.698 314.779 650.078 323.949C642.051 327.942 629.189 326.869 619.935 326.84L624.263 297.332Z"/>
  <path d="M846.723 391.224L868.836 391.171L858.028 465.008L899.797 464.886C899.016 471.697 898.08 478.489 896.991 485.257L833.152 485.243L846.723 391.224Z"/>
  <path d="M842.869 287.046C863.002 285.548 878.098 292.695 884.675 312.559L875.408 315.649C872.697 308.337 868.936 302.379 861.632 298.99C830.696 284.637 800.002 318.664 811.113 348.817C813.505 355.468 818.501 360.859 824.949 363.75C833.037 367.445 844.914 367.67 853.107 364.27C865.449 359.148 870.706 349.954 875.566 338.498L860.508 338.549L837.137 338.589L838.329 330.248L887.608 330.291C885.074 340.549 883.369 346.331 877.544 355.357C858.759 385.447 804.5 382.348 799.158 343.4C795.277 315.103 815.09 291.103 842.869 287.046Z"/>
  <path d="M923.537 391.208L945.961 391.14L932.309 485.231L910.361 485.268C914.969 454.648 919.759 421.917 923.537 391.208Z"/>
  <path d="M714.231 391.143L735.984 391.112C735.599 395.003 734.958 399.333 734.345 403.211C730.042 430.42 727.066 458.178 722.276 485.278L700.269 485.277L714.231 391.143Z"/>
  <path d="M909.793 288.78L958.318 288.784C957.858 291.59 957.518 294.67 957.146 297.51L918.343 297.483C916.794 307.42 915.301 317.366 913.864 327.32C925.918 327.475 938.426 327.265 950.516 327.229C950.372 330.201 949.821 333.089 949.327 336.021L912.592 335.977L911.685 342.011C910.393 349.292 909.311 357.681 908.202 365.064L947.772 364.964L946.55 373.572C930.257 373.787 913.392 373.568 897.065 373.547C901.537 345.326 905.78 317.069 909.793 288.78Z"/>
  <path d="M689.644 288.76L738.187 288.744L737.177 297.456L698.174 297.45L693.743 327.074L730.046 326.981C729.815 329.849 729.429 332.819 729.097 335.688C720.522 335.719 700.738 335.048 693.319 335.915C691.848 337.693 692.18 338.236 691.759 340.788C690.393 348.53 689.278 357.211 688.105 365.049L727.41 364.953L726.306 373.55L676.977 373.578C681.358 345.329 685.581 317.056 689.644 288.76Z"/>
  <path d="M755.836 288.805L765.436 288.781C763.103 305.02 760.67 321.244 758.139 337.452C756.979 345.049 754.688 357.78 754.342 365.1L790.393 365.144C790.242 367.909 789.766 370.887 789.384 373.652C774.343 373.919 758.368 373.665 743.258 373.651C746.591 346.126 751.93 316.555 755.836 288.805Z"/>
</svg>