<svg xmlns="http://www.w3.org/2000/svg" viewBox="562 270 203 228" fill="#1c1917">
  <path d="M673.904 281.928C682.874 281.855 696.215 281.409 704.77 282.117C709.707 285.405 749.466 325.552 753.188 331.152C753.237 332.354 753.268 333.557 753.281 334.76L753.368 420.998C753.378 433.669 753.933 446.864 753.147 459.463C751.25 489.884 724.188 486.043 703.226 486.034L654.609 485.972C642.621 485.866 630.58 486.089 618.531 486.092C603.157 486.096 586.43 488.054 578.115 471.772C574.891 465.46 575.188 460.871 574.995 453.895C574.927 420.045 574.92 385.932 574.88 352.119L574.848 321.625C574.838 312.114 573.808 304.179 578.369 295.477C587.053 278.909 609.025 282.054 624.8 282.024L673.904 281.928Z"/>
  <path fill="white" d="M601.239 296.829C628.422 295.807 664.6 296.808 692.392 296.842C692.276 337.74 704.313 335.559 738.496 339.502L738.741 416.305C738.76 428.262 738.783 440.246 738.761 452.202C738.742 462.642 737.847 467.752 727.19 471.26C701.905 471.78 676.541 471.335 651.247 471.342C635.773 471.346 619.928 472.207 604.495 471.363C602.13 471.234 599.998 471.047 597.823 470.044C594.386 468.459 591.714 465.642 590.502 462.029C588.098 454.856 589.554 385.337 589.544 372.02C589.53 351.687 588.407 330.739 589.649 310.481C589.792 308.143 590.065 306.165 591.159 304.06C593.317 299.907 596.96 298.161 601.239 296.829Z"/>
  <path d="M636.773 334.984C639.363 334.837 643.073 334.26 645.104 335.594C646.056 337.041 646.155 341.168 645.259 341.224C613.297 343.247 641.589 372.53 621.533 389.818C634.531 400.2 626.996 414.49 629.826 428.524C631.96 439.105 641.948 436.069 644.299 437.455C645.303 439.105 645.745 442.101 644.441 443.603L638.94 443.862C611.794 442.837 627.088 411.759 619.065 397.396C617.095 393.87 610.968 393.376 607.33 392.995C606.051 391.314 606.572 390.45 606.646 387.856C608.86 384.771 622.148 390.181 621.542 370.442C621.078 355.361 618.793 339.33 636.773 334.984Z"/>
  <path d="M685.375 342.141C716.002 341.254 705.219 360.076 709.057 380.522C710.381 387.576 720.644 384.249 722.058 391.218C719.332 395.605 706.536 391.212 708.02 409.71C708.982 421.693 710.028 432.518 698.048 438.785C697.408 438.964 696.76 439.115 696.106 439.235C693.239 439.754 687.636 440.711 685.162 438.994C683.141 430.56 695.492 434.334 698.295 429.94C706.945 416.374 693.909 403.438 707.681 390.287C695.173 377.318 704.728 368.969 699.998 354.038C698.56 349.499 690.35 349.172 685.942 347.845C684.651 345.706 685.208 345.158 685.375 342.141Z"/>
</svg>